# xmcd CD database file
#
# Track frame offsets:
#        183
#        53270
#        82158
#        123133
#        146645
#        168833
#        187273
#        224613
#        241748
#
# Disc length: 3541 seconds
#
# Revision: 0
# Processed by: cddbd v1.5.2PL0 Copyright (c) Steve Scherf et al.
# Submitted via: CUERipper 2.1.5
#
DISCID=7a0dd309
DTITLE=Michael Nyman - The Piano Concerto/MGV
DYEAR=1994
DGENRE=Classical
TTITLE0=The Piano Concerto: The Beach - Kathryn Stott - piano and Royal Liverpool Philharmonic Orch.
TTITLE1=The Piano Concerto: The Woods
TTITLE2=The Piano Concerto: The Hut
TTITLE3=The Piano Concerto: The Release
TTITLE4=MGV: 1st Region - Musique a Grande Vitesse - M. Nyman Band and Orch.
TTITLE5=MGV: 2nd Region
TTITLE6=MGV: 3rd Region
TTITLE7=MGV: 4th Region
TTITLE8=MGV: 5th Region
EXTD=
EXTT0=
EXTT1=
EXTT2=
EXTT3=
EXTT4=
EXTT5=
EXTT6=
EXTT7=
EXTT8=
PLAYORDER=
